<?xml version="1.0" encoding="UTF-8" standalone="no"?>
<svg
   viewBox="0 0 128 128"
   version="1.1"
   id="svg1"
   sodipodi:docname="gear_g.svg"
   inkscape:version="1.4 (86a8ad7, 2024-10-11)"
   xmlns:inkscape="http://www.inkscape.org/namespaces/inkscape"
   xmlns:sodipodi="http://sodipodi.sourceforge.net/DTD/sodipodi-0.dtd"
   xmlns="http://www.w3.org/2000/svg"
   xmlns:svg="http://www.w3.org/2000/svg">
  <sodipodi:namedview
     id="namedview1"
     pagecolor="#ffffff"
     bordercolor="#000000"
     borderopacity="0.25"
     inkscape:showpageshadow="2"
     inkscape:pageopacity="0.0"
     inkscape:pagecheckerboard="0"
     inkscape:deskcolor="#d1d1d1"
     inkscape:zoom="0.4270262"
     inkscape:cx="-208.41813"
     inkscape:cy="-36.297539"
     inkscape:window-width="1920"
     inkscape:window-height="991"
     inkscape:window-x="-9"
     inkscape:window-y="-9"
     inkscape:window-maximized="1"
     inkscape:current-layer="svg1" />
  <defs
     id="defs1" />
  <!--!Font Awesome Free 7.0.0 by @fontawesome - https://fontawesome.com License - https://fontawesome.com/license/free Copyright 2025 Fonticons, Inc.-->
  <path
     d="M 48.62197,6.4045728 C 49.375449,2.687409 52.665641,0 56.483269,0 H 71.50262 c 3.817628,0 7.10782,2.687409 7.861299,6.4045728 l 3.641816,17.5811802 c 3.541352,1.506958 6.85666,3.440888 9.870577,5.726442 L 109.90494,24.0611 c 3.6167,-1.205566 7.58502,0.301392 9.49384,3.616701 l 7.50967,13.010073 c 1.90882,3.315309 1.23069,7.48456 -1.63253,10.021273 L 111.8891,62.614118 c 0.22605,1.858582 0.32651,3.767395 0.32651,5.701325 0,1.93393 -0.12558,3.842744 -0.32651,5.701326 l 13.41193,11.930087 c 2.86322,2.536713 3.51624,6.73108 1.63254,10.021272 l -7.50968,13.010072 c -1.90881,3.29019 -5.87713,4.82227 -9.49383,3.6167 l -17.028632,-5.65109 c -3.039033,2.28555 -6.354341,4.19437 -9.870577,5.72644 l -3.6167,17.55606 c -0.778595,3.74228 -4.068787,6.40458 -7.861299,6.40458 H 56.533501 c -3.817628,0 -7.10782,-2.68741 -7.861299,-6.40458 l -3.6167,-17.55606 c -3.541352,-1.50696 -6.831545,-3.44089 -9.870577,-5.72644 l -17.103978,5.65109 c -3.6167,1.20557 -7.585024,-0.30139 -9.4938374,-3.6167 L 1.077434,95.968128 C -0.83137989,92.65282 -0.15324865,88.483569 2.7099722,85.946856 L 16.121901,74.016769 c -0.226044,-1.858582 -0.326508,-3.767396 -0.326508,-5.701326 0,-1.93393 0.12558,-3.842743 0.326508,-5.701325 L 2.7099722,50.684031 C -0.15324865,48.147318 -0.80626392,43.952951 1.077434,40.662758 L 8.5871096,27.652685 c 1.9088134,-3.315309 5.8771374,-4.822267 9.4938374,-3.6167 l 17.02863,5.651094 c 3.039032,-2.285554 6.354341,-4.194368 9.870577,-5.726442 z M 63.992944,88.408221 c 11.10126,-0.05023 20.067662,-9.066866 20.01743,-20.168126 -0.05023,-11.101259 -9.066866,-20.067661 -20.168125,-20.017429 -11.10126,0.05023 -20.067662,9.066866 -20.01743,20.168125 0.05023,11.10126 9.066866,20.067662 20.168125,20.01743 z"
     id="path1"
     style="fill:#999999;fill-opacity:1;stroke-width:0.25116" />
</svg>
