<?xml version="1.0" encoding="UTF-8" standalone="no"?>
<svg
   viewBox="0 0 128 128"
   version="1.1"
   id="svg1"
   sodipodi:docname="git.svg"
   inkscape:version="1.4 (86a8ad7, 2024-10-11)"
   xmlns:inkscape="http://www.inkscape.org/namespaces/inkscape"
   xmlns:sodipodi="http://sodipodi.sourceforge.net/DTD/sodipodi-0.dtd"
   xmlns="http://www.w3.org/2000/svg"
   xmlns:svg="http://www.w3.org/2000/svg">
  <defs
     id="defs1" />
  <sodipodi:namedview
     id="namedview1"
     pagecolor="#ffffff"
     bordercolor="#000000"
     borderopacity="0.25"
     inkscape:showpageshadow="2"
     inkscape:pageopacity="0.0"
     inkscape:pagecheckerboard="0"
     inkscape:deskcolor="#d1d1d1"
     inkscape:zoom="6.0390625"
     inkscape:cx="63.917206"
     inkscape:cy="64"
     inkscape:window-width="1920"
     inkscape:window-height="991"
     inkscape:window-x="-9"
     inkscape:window-y="-9"
     inkscape:window-maximized="1"
     inkscape:current-layer="svg1" />
  <path
     fill="#F34F29"
     d="M124.742 58.378L69.625 3.264c-3.172-3.174-8.32-3.174-11.497 0L46.685 14.71l14.518 14.518c3.375-1.139 7.243-.375 9.932 2.314a9.66 9.66 0 012.293 9.993L87.42 55.529c3.385-1.167 7.292-.413 9.994 2.295 3.78 3.777 3.78 9.9 0 13.679a9.673 9.673 0 01-13.683 0 9.677 9.677 0 01-2.105-10.521L68.578 47.933l-.002 34.341a9.708 9.708 0 012.559 1.828c3.779 3.777 3.779 9.898 0 13.683-3.779 3.777-9.904 3.777-13.679 0-3.778-3.784-4.088-9.905-.311-13.683.934-.933 1.855-1.638 2.855-2.11V47.333c-1-.472-1.92-1.172-2.856-2.111-2.861-2.86-3.396-7.06-1.928-10.576L40.983 20.333 3.229 58.123c-3.175 3.177-3.155 8.325.02 11.5l55.126 55.114c3.173 3.174 8.325 3.174 11.503 0l54.86-54.858c3.175-3.176 3.178-8.327.004-11.501z"
     id="path1"
     style="fill:#15f4b1;fill-opacity:1" />
</svg>
